<svg xmlns="http://www.w3.org/2000/svg" version="1.1" xmlns:xlink="http://www.w3.org/1999/xlink" width="2000" height="2133" viewBox="0 0 2000 2133"><svg xml:space="preserve" width="2000" height="2133" data-version="2" data-id="lg_pMjI8Y4QKw34nzhQMn" viewBox="0 0 136 145" x="0" y="0">
    <rect width="5" height="2" x="-2.5" y="-1" fill="#23488A" rx="0" ry="0" transform="matrix(4.4412 0 0 4.4412 119.074 139.118)"></rect>
    <rect width="4" height="2" x="-2" y="-1" fill="#23488A" rx="0" ry="0" transform="matrix(4.4412 0 0 4.4412 28.03 68.059)"></rect>
    <rect width="6" height="2" x="-3" y="-1" fill="#23488A" rx="0" ry="0" transform="matrix(4.4412 0 0 4.4412 63.559 59.176)"></rect>
    <rect width="6" height="2" x="-3" y="-1" fill="#23488A" rx="0" ry="0" transform="matrix(4.4412 0 0 4.4412 14.706 5.882)"></rect>
    <rect width="4" height="2" x="-2" y="-1" fill="#23488A" rx="0" ry="0" transform="matrix(4.4412 0 0 4.4412 68 23.647)"></rect>
    <rect width="5" height="2" x="-2.5" y="-1" fill="#23488A" rx="0" ry="0" transform="matrix(4.4412 0 0 4.4412 39.132 36.97)"></rect>
    <rect width="9" height="2" x="-4.5" y="-1" fill="#23488A" rx="0" ry="0" transform="matrix(4.4412 0 0 4.4412 70.22 5.882)"></rect>
    <rect width="7" height="2" x="-3.5" y="-1" fill="#23488A" rx="0" ry="0" transform="matrix(4.4412 0 0 4.4412 92.427 41.412)"></rect>
    <rect width="13" height="2" x="-6.5" y="-1" fill="#23488A" rx="0" ry="0" transform="matrix(4.4412 0 0 4.4412 79.103 81.382)"></rect>
    <rect width="3" height="2" x="-1.5" y="-1" fill="#23488A" rx="0" ry="0" transform="matrix(4.4412 0 0 4.4412 21.367 130.236)"></rect>
    <rect width="6" height="2" x="-3" y="-1" fill="#23488A" rx="0" ry="0" transform="matrix(4.4412 0 0 4.4412 94.647 112.47)"></rect>
    <rect width="5" height="2" x="-2.5" y="-1" fill="#23488A" rx="0" ry="0" transform="matrix(4.4412 0 0 4.4412 39.132 99.147)"></rect>
    <rect width="4" height="2" x="-2" y="-1" fill="#23488A" rx="0" ry="0" transform="matrix(4.4412 0 0 4.4412 72.441 130.236)"></rect>
    <rect width="4" height="2" x="-2" y="-1" fill="#23488A" rx="0" ry="0" transform="matrix(4.4412 0 0 4.4412 81.324 94.706)"></rect>
    <rect width="2" height="2" x="-1" y="-1" fill="#23488A" rx="0" ry="0" transform="matrix(4.4412 0 0 4.4412 90.206 59.176)"></rect>
    <rect width="2" height="2" x="-1" y="-1" fill="#23488A" rx="0" ry="0" transform="matrix(4.4412 0 0 4.4412 103.53 5.882)"></rect>
    <rect width="2" height="2" x="-1" y="-1" fill="#23488A" rx="0" ry="0" transform="matrix(4.4412 0 0 4.4412 130.177 5.882)"></rect>
    <rect width="3" height="2" x="-1.5" y="-1" fill="#23488A" rx="0" ry="0" transform="matrix(4.4412 0 0 4.4412 127.956 41.412)"></rect>
    <rect width="2" height="2" x="-1" y="-1" fill="#23488A" rx="0" ry="0" transform="matrix(4.4412 0 0 4.4412 94.647 23.647)"></rect>
    <rect width="5" height="2" x="-2.5" y="-1" fill="#23488A" rx="0" ry="0" transform="matrix(4.4412 0 0 4.4412 123.515 94.706)"></rect>
</svg></svg>